# xmcd
#
# Track frame offsets:
#	150
#	10894
#	21873
#	33939
#	47974
#	62037
#	72612
#	84556
#	95319
#	107657
#	119592
#	131227
#	144859
#	156859
#	167002
#	179762
#	193816
#	207691
#	220545
#	233867
#	245103
#	253428
#	268391
#	291679
#	305667
#	320171
#
# Disc length: 4436 seconds
#
# Revision: 1
# Processed by: cddbd v1.5.2PL0 Copyright (c) Steve Scherf et al.
# Submitted via: EZCDAudioConverter 4.0.4.2
#
DISCID=a911521a
DTITLE=Otis Rush - I'm Satisfied
DYEAR=2013
DGENRE=Blues
TTITLE0=Otis Rush w/ Walter Horton, Wayne Bennett, Willie Dixon, Lafayette Lea
TTITLE0=ke, Al Duncan, James "Red" Holloway - Sit Down Baby
TTITLE1=Otis Rush w/ Walter Horton, Wayne Bennett, Willie Dixon, Lafayette Lea
TTITLE1=ke, Al Duncan, Harold Ashby, Lucious Washington - Violent Love
TTITLE2=Otis Rushw/ Ike Turner, Willie Dixon, Willie D. Warren, Harold Burrage
TTITLE2=or Little Brother Montgomery, Odie Payne, Eddie Jones, Carlson Oliver
TTITLE2=, Jackie Brenston - My Baby Is A Good ‘Un
TTITLE3=Otis Rush w/ Little Walter, Jody Williams, Willie Dixon, Lafayette Lea
TTITLE3=ke, Odie Payne, Harold Ashby - If You Were Mine
TTITLE4=Otis Rush w/ Walter Horton, Wayne Bennett, Willie Dixon, Lafayette Lea
TTITLE4=ke, Al Duncan, Harold Ashby, Lucious Washington - My Love Will Never D
TTITLE4=ie
TTITLE5=Otis Rushw/ Ike Turner, Willie Dixon, Willie D. Warren, Harold Burrage
TTITLE5=or Little Brother Montgomery, Odie Payne, Eddie Jones, Carlson Oliver
TTITLE5=, Jackie Brenston - Keep On Loving Me Baby
TTITLE6=Otis Rush w/ Ike Turner, Willie Dixon, Willie D. Warren, Harold Burrag
TTITLE6=e or Little Brother Montgomery, Odie Payne, Eddie Jones, Carlson Olive
TTITLE6=r, Jackie Brenston - All Your Love (I Miss Loving)
TTITLE7=Otis  Rush w/ Matt "Guitar" Murphy, Willie Dixon, Lafayette Leake, Odi
TTITLE7=e Payne, Bob Neely - I’m Satisfied 
TTITLE8=Otis Rush w/ Ike Turner, Willie Dixon, Willie D. Warren, Harold Burrag
TTITLE8=e or Little Brother Montgomery, Odie Payne, Eddie Jones, Carlson Olive
TTITLE8=r, Jackie Brenston - Double Trouble
TTITLE9=Otis Rush w/ Lefty Bates, Jack Meyers, Lafayette Leake, K. C. Jones, J
TTITLE9=ohnny Board, Abe Locke, King Kolax, Sonny Turner, Murray Watson, Milto
TTITLE9=n Bland  - Homework
TTITLE10=Otis Rush w/ Little Walter, Louis Myers, Willie Dixon, Little Brother
TTITLE10=Montgomery, odie Payne, Harold Ashby - Jump Sister Bessie
TTITLE11=Otis Rush w/ Little Walter, Louis Myers, Willie Dixon, Little Brother
TTITLE11=Montgomery, odie Payne, Harold Ashby - I Love That Woman
TTITLE12=Otis Rush w/ Matt "Guitar" Murphy, Willie Dixon, Lafayette Leake, Odi
TTITLE12=e Payne, Bobby Neely - You Know My Love 
TTITLE13=Otis Rush w/ Matt "Guitar" Murphy, Willie Dixon, Lafayette Leake, Odi
TTITLE13=e Payne, Bobby Neely - I Can’t Stop Baby
TTITLE14=Otis Rush w/ Reggie Boyd, Willie Dixon, Lafayette Leake, Odie Payne, 
TTITLE14=Harold Ashby - She’s A Good ‘Un
TTITLE15=Otis Rush w/ Walter Horton, Wayne Bennett, Willie Dixon, Lafayette Le
TTITLE15=ake, Al Duncan, James "Red" Holloway - I Can’t Quit You Baby
TTITLE16=Otis Rush w/ Little Walter, Jody Williams, Willie Dixon, Lafayette Le
TTITLE16=ake, Odie Payne, Harold Ashby - Groaning The Blues
TTITLE17=Otis Rush w/ Reggie Boyd, Willie Dixon, Lafayette Leake, Odie Payne, 
TTITLE17=Harold Ashby - Three Times A Fool 
TTITLE18=Otis Rush w/ Louis Myers, Willie Dixon, Little Brother Montgomery, Fr
TTITLE18=ed Below, Harold Ashby - Checking On My Baby
TTITLE19=Otis Rush w/ Lefty Bates, Jack Meyers, Lafayette Leake, K. C. Jones, 
TTITLE19=Johnny Board, Abe Locke, King Kolax, Sonny Turner, Murray Watson, Mil
TTITLE19=ton Bland  - I Have To Laugh
TTITLE20=Otis Rush w/ Walter Horton, Wayne Bennett, Willie Dixon, Lafayette Le
TTITLE20=ake, Al Duncan, James "Red" Holloway - Sit Down Baby (Alternate Take)
TTITLE21=Otis Rush w/ Reggie Boyd, Willie Dixon, Lafayette Leake, Odie Payne, 
TTITLE21=Harold Ashby - She’s A Good ‘Un (Alternate Take)
TTITLE22=Otis Rush w/ Ike Turner, Willie Dixon, Willie D. Warren, Harold Burra
TTITLE22=ge or Little Brother Montgomery, Odie Payne, Eddie Jones, Carlson Oli
TTITLE22=ver, Jackie Brenston - Double Trouble (Alternate Take)
TTITLE23=Otis Rush w/ Walter Horton, Wayne Bennett, Willie Dixon, Lafayette Le
TTITLE23=ake, Al Duncan, Harold Ashby, Lucious Washington - My Love Will Never
TTITLE23=Die (Alternate Take)
TTITLE24=Otis  Rush w/ Matt "Guitar" Murphy, Willie Dixon, Lafayette Leake, Od
TTITLE24=ie Payne, Bob Neely - So Many Roads, So Many Trains
TTITLE25=Otis Rush w/ Louis Myers, Willie Dixon, Little Brother Montgomery, Fr
TTITLE25=ed Below, Harold Ashby - It Takes Time
EXTD=
EXTT0=
EXTT1=
EXTT2=
EXTT3=
EXTT4=
EXTT5=
EXTT6=
EXTT7=
EXTT8=
EXTT9=
EXTT10=
EXTT11=
EXTT12=
EXTT13=
EXTT14=
EXTT15=
EXTT16=
EXTT17=
EXTT18=
EXTT19=
EXTT20=
EXTT21=
EXTT22=
EXTT23=
EXTT24=
EXTT25=
PLAYORDER=
